<svg xmlns="http://www.w3.org/2000/svg" width="197.02" height="58"><defs><linearGradient id="a" x1="49.51" y1="49.51" x2="8.49" y2="8.49" gradientUnits="userSpaceOnUse"><stop offset="0" stop-color="#011fa7"/><stop offset="1" stop-color="#006db2"/></linearGradient><style>.c{fill:#797a79}</style></defs><path d="M51.39 10.57A29 29 0 00.85 36a17.39 17.39 0 009.35 11.5 23.19 23.19 0 0025.65-3.73A14.53 14.53 0 0040.6 33v-1.1H23.2v-1.74h19.14V33A16.23 16.23 0 0137 45a25 25 0 01-30.39 2.43 29 29 0 0044.78-36.86zm-6.81 9.81a7 7 0 117-7 7 7 0 01-7 7z" fill="url(#a)"/><path class="c" d="M99.74 28.46v1.07m7.48 0v-1.06m82.31-14.97h7.48v31h-7.48zM84.77 14a15 15 0 1015 15 15 15 0 00-15-15zm0 23a8 8 0 118-8 8 8 0 01-8 8z"/><path class="c" d="M122.19 44.5V29h-7.48v8a7.49 7.49 0 01-7.49-7.49v-1.04a7.49 7.49 0 017.49-7.47h7.48v-7.5h-7.49a15 15 0 00-15 15v1.07a15 15 0 0015 15zm10.69 0h-7.49v-31h7.49a15 15 0 0115 15v16h-7.48v-8H135V29h5.34v-.53a7.48 7.48 0 00-7.46-7.47zm18.17 0h7.48V21H165v23.5h7.48V21a6.41 6.41 0 016.41 6.42V44.5h7.49V26.33A12.83 12.83 0 00173.5 13.5h-22.45z"/></svg>